<svg width="32" height="38" viewBox="0 0 32 38" fill="none" xmlns="http://www.w3.org/2000/svg">
<rect width="32" height="38" fill="#F5F5F5"/>
<path d="M14.025 37.05C9.675 32.2852 0 20.7367 0 14.25C0 6.37984 7.16333 0 16 0C24.8333 0 32 6.37984 32 14.25C32 20.7367 22.25 32.2852 17.975 37.05C16.95 38.1855 15.05 38.1855 14.025 37.05ZM16 19C18.9417 19 21.3333 16.8699 21.3333 14.25C21.3333 11.6301 18.9417 9.5 16 9.5C13.0583 9.5 10.6667 11.6301 10.6667 14.25C10.6667 16.8699 13.0583 19 16 19Z" fill="#FF5722"/>
</svg>
