<svg width="32" height="38" viewBox="0 0 32 38" fill="none" xmlns="http://www.w3.org/2000/svg">
<path d="M27.6364 0H4.3636C1.9545 0 0 1.5957 0 3.5625V34.4375C0 36.4043 1.9545 38 4.3636 38H27.6364C30.0455 38 32 36.4043 32 34.4375V3.5625C32 1.5957 30.0455 0 27.6364 0ZM20.3636 33.1832C20.3636 33.9031 19.7091 34.4375 18.9091 34.4375H13.0091C12.2909 34.4375 11.6364 33.9031 11.6364 33.25C11.6364 32.5969 12.2909 32.0625 13.0909 32.0625H18.9091C19.7091 32.0625 20.3636 32.5969 20.3636 33.1832ZM26.1818 28.5H5.8182V4.75H26.1818V28.5Z" fill="#FF5722"/>
</svg>
