<svg width="384" height="512" viewBox="0 0 384 512" fill="none" xmlns="http://www.w3.org/2000/svg">
<rect width="384" height="512" fill="#F5F5F5"/>
<path d="M43.6364 0H20.3636C17.9545 0 16 1.5957 16 3.5625V34.4375C16 36.4043 17.9545 38 20.3636 38H43.6364C46.0455 38 48 36.4043 48 34.4375V3.5625C48 1.5957 46.0455 0 43.6364 0ZM36.3636 33.1832C36.3636 33.9031 35.7091 34.4375 34.9091 34.4375H29.0091C28.2909 34.4375 27.6364 33.9031 27.6364 33.25C27.6364 32.5969 28.2909 32.0625 29.0909 32.0625H34.9091C35.7091 32.0625 36.3636 32.5969 36.3636 33.1832ZM42.1818 28.5H21.8182V4.75H42.1818V28.5Z" fill="#FF5722"/>
</svg>
