<svg width="0" height="0" class="hidden">
  <symbol fill="none" xmlns="http://www.w3.org/2000/svg" viewBox="0 0 32 32" id="coloredEmail">
    <rect width="32" height="32" fill="#F5F5F5"></rect>
    <path d="M29 4C30.6562 4 32 5.34312 32 7C32 7.94375 31.5562 8.83125 30.8 9.4L17.2 19.6C16.4875 20.1313 15.5125 20.1313 14.8 19.6L1.2 9.4C0.444563 8.83125 0 7.94375 0 7C0 5.34312 1.34312 4 3 4H29ZM13.6 21.2C15.025 22.2688 16.975 22.2688 18.4 21.2L32 11V24C32 26.2062 30.2062 28 28 28H4C1.79063 28 0 26.2062 0 24V11L13.6 21.2Z" fill="#FF5722"></path>
  </symbol>
  <symbol fill="none" xmlns="http://www.w3.org/2000/svg" viewBox="0 0 32 32" id="coloredFacebook">
    <rect width="32" height="32" fill="#F5F5F5"></rect>
    <path d="M32 16.0974C32 7.20487 24.8387 0 16 0C7.16129 0 0 7.20487 0 16.0974C0 24.1318 5.85097 30.7914 13.5 32V20.7507H9.43548V16.0974H13.5V12.5508C13.5 8.51667 15.8871 6.28836 19.5432 6.28836C21.2942 6.28836 23.1252 6.60252 23.1252 6.60252V10.5619H21.1071C19.12 10.5619 18.5 11.803 18.5 13.0759V16.0974H22.9374L22.2277 20.7507H18.5V32C26.149 30.7914 32 24.1318 32 16.0974Z" fill="#FF5722"></path>
  </symbol>
  <symbol fill="none" xmlns="http://www.w3.org/2000/svg" viewBox="0 0 32 32" id="coloredLinkedin">
    <path d="M29.7143 0H2.27857C1.02143 0 0 1.03571 0 2.30714V29.6929C0 30.9643 1.02143 32 2.27857 32H29.7143C30.9714 32 32 30.9643 32 29.6929V2.30714C32 1.03571 30.9714 0 29.7143 0ZM9.67143 27.4286H4.92857V12.1571H9.67857V27.4286H9.67143ZM7.3 10.0714C5.77857 10.0714 4.55 8.83571 4.55 7.32143C4.55 5.80714 5.77857 4.57143 7.3 4.57143C8.81429 4.57143 10.05 5.80714 10.05 7.32143C10.05 8.84286 8.82143 10.0714 7.3 10.0714V10.0714ZM27.45 27.4286H22.7071V20C22.7071 18.2286 22.6714 15.95 20.2429 15.95C17.7714 15.95 17.3929 17.8786 17.3929 19.8714V27.4286H12.65V12.1571H17.2V14.2429H17.2643C17.9 13.0429 19.45 11.7786 21.7571 11.7786C26.5571 11.7786 27.45 14.9429 27.45 19.0571V27.4286V27.4286Z" fill="#FF5722"></path>
  </symbol>
  <symbol fill="none" xmlns="http://www.w3.org/2000/svg" viewBox="0 0 32 38" id="coloredLocation">
    <rect width="32" height="38" fill="#F5F5F5"></rect>
    <path d="M14.025 37.05C9.675 32.2852 0 20.7367 0 14.25C0 6.37984 7.16333 0 16 0C24.8333 0 32 6.37984 32 14.25C32 20.7367 22.25 32.2852 17.975 37.05C16.95 38.1855 15.05 38.1855 14.025 37.05ZM16 19C18.9417 19 21.3333 16.8699 21.3333 14.25C21.3333 11.6301 18.9417 9.5 16 9.5C13.0583 9.5 10.6667 11.6301 10.6667 14.25C10.6667 16.8699 13.0583 19 16 19Z" fill="#FF5722"></path>
  </symbol>
  <symbol fill="none" xmlns="http://www.w3.org/2000/svg" viewBox="0 0 32 38" id="coloredMobi">
    <path d="M27.6364 0H4.3636C1.9545 0 0 1.5957 0 3.5625V34.4375C0 36.4043 1.9545 38 4.3636 38H27.6364C30.0455 38 32 36.4043 32 34.4375V3.5625C32 1.5957 30.0455 0 27.6364 0ZM20.3636 33.1832C20.3636 33.9031 19.7091 34.4375 18.9091 34.4375H13.0091C12.2909 34.4375 11.6364 33.9031 11.6364 33.25C11.6364 32.5969 12.2909 32.0625 13.0909 32.0625H18.9091C19.7091 32.0625 20.3636 32.5969 20.3636 33.1832ZM26.1818 28.5H5.8182V4.75H26.1818V28.5Z" fill="#FF5722"></path>
  </symbol>
  <symbol fill="none" xmlns="http://www.w3.org/2000/svg" viewBox="0 0 32 32" id="coloredTwitter">
    <path d="M28.5714 0H3.42857C1.53571 0 0 1.53571 0 3.42857V28.5714C0 30.4643 1.53571 32 3.42857 32H28.5714C30.4643 32 32 30.4643 32 28.5714V3.42857C32 1.53571 30.4643 0 28.5714 0ZM25.0786 11.3429C25.0929 11.5429 25.0929 11.75 25.0929 11.95C25.0929 18.1429 20.3786 25.2786 11.7643 25.2786C9.10714 25.2786 6.64286 24.5071 4.57143 23.1786C4.95 23.2214 5.31429 23.2357 5.7 23.2357C7.89286 23.2357 9.90714 22.4929 11.5143 21.2357C9.45714 21.1929 7.72857 19.8429 7.13571 17.9857C7.85714 18.0929 8.50714 18.0929 9.25 17.9C7.10714 17.4643 5.5 15.5786 5.5 13.3V13.2429C6.12143 13.5929 6.85 13.8071 7.61429 13.8357C6.97173 13.4083 6.44499 12.8285 6.08105 12.148C5.71711 11.4675 5.52731 10.7074 5.52857 9.93572C5.52857 9.06429 5.75714 8.26429 6.16429 7.57143C8.47143 10.4143 11.9357 12.2714 15.8214 12.4714C15.1571 9.29286 17.5357 6.71429 20.3929 6.71429C21.7429 6.71429 22.9571 7.27857 23.8143 8.19286C24.8714 7.99286 25.8857 7.6 26.7857 7.06429C26.4357 8.15 25.7 9.06429 24.7286 9.64286C25.6714 9.54286 26.5857 9.27857 27.4286 8.91429C26.7929 9.85 25.9929 10.6786 25.0786 11.3429Z" fill="#FF5722"></path>
  </symbol>
</svg>